<svg version="1.1"
	 xmlns="http://www.w3.org/2000/svg"
	 viewBox="0 0 100 100">
	<path d="M82.1,55.3c-0.2,0.3-0.6,0.4-0.9,0.5c0,0-0.1,0-0.1,0c-0.3,0-0.7-0.1-0.9-0.3L50,30.3L19.8,55.4c-0.3,0.2-0.7,0.3-1,0.3
		c-0.3,0-0.7-0.2-0.9-0.5L15.2,52c-0.5-0.6-0.4-1.5,0.2-2L46.7,24c1.8-1.5,4.8-1.5,6.6,0L64,32.9v-8.5c0-0.8,0.6-1.4,1.4-1.4h8.4
		c0.8,0,1.4,0.6,1.4,1.4v17.8l9.5,7.9c0.6,0.5,0.7,1.4,0.2,2L82.1,55.3z M75.1,76c0,1.5-1.3,2.8-2.8,2.8H55.6V62H44.4v16.7H27.7
		c-1.5,0-2.8-1.3-2.8-2.8V55.1c0-0.1,0-0.2,0-0.3L50,34.1l25.1,20.7c0,0.1,0,0.2,0,0.3V76z"/>
</svg>
