<svg version="1.1"
	 xmlns="http://www.w3.org/2000/svg"
	 viewBox="0 0 100 100">
	<path d="M83.6,55.8c0,0.7-0.5,1.4-1.2,1.6l-8.1,1.2c-0.5,1.4-1,2.7-1.7,4c1.5,2.1,3.1,4.1,4.7,6c0.3,0.3,0.4,0.7,0.4,1.1
		c0,0.4-0.1,0.7-0.4,1c-1,1.4-7,7.8-8.4,7.8c-0.4,0-0.8-0.2-1.1-0.4l-6-4.7c-1.3,0.7-2.6,1.2-4,1.7c-0.3,2.7-0.6,5.5-1.3,8.1
		c-0.2,0.7-0.8,1.2-1.6,1.2h-9.7c-0.8,0-1.5-0.6-1.6-1.3l-1.2-8c-1.4-0.4-2.7-1-3.9-1.6l-6.2,4.7c-0.3,0.3-0.7,0.4-1.1,0.4
		s-0.8-0.2-1.1-0.5c-2.3-2.1-5.4-4.8-7.2-7.3c-0.2-0.3-0.3-0.7-0.3-1c0-0.4,0.1-0.7,0.3-1c1.5-2,3.1-3.9,4.6-6
		c-0.7-1.4-1.4-2.8-1.8-4.3l-8-1.2c-0.7-0.1-1.3-0.8-1.3-1.6v-9.7c0-0.7,0.5-1.4,1.2-1.6l8.1-1.2c0.4-1.4,1-2.7,1.7-4
		c-1.5-2.1-3.1-4.1-4.7-6c-0.3-0.3-0.4-0.7-0.4-1c0-0.4,0.2-0.7,0.4-1c1-1.4,7-7.8,8.4-7.8c0.4,0,0.8,0.2,1.1,0.4l6,4.7
		c1.3-0.7,2.6-1.2,4-1.7c0.3-2.7,0.6-5.5,1.3-8.1c0.2-0.7,0.8-1.2,1.6-1.2h9.7c0.8,0,1.5,0.6,1.6,1.3l1.2,8c1.4,0.4,2.7,1,3.9,1.6
		l6.2-4.7c0.3-0.3,0.7-0.4,1-0.4s0.8,0.2,1.1,0.4c2.3,2.1,5.4,4.9,7.2,7.4c0.2,0.3,0.3,0.6,0.3,1c0,0.4-0.1,0.7-0.3,1
		c-1.5,2-3.1,3.9-4.6,6c0.7,1.4,1.4,2.8,1.8,4.3l8,1.2c0.7,0.1,1.3,0.8,1.3,1.6V55.8z M50,39.7c-6.2,0-11.2,5-11.2,11.2
		c0,6.2,5,11.2,11.2,11.2c6.2,0,11.2-5,11.2-11.2C61.2,44.7,56.2,39.7,50,39.7z"/>
</svg>
