<svg version="1.1"
	 xmlns="http://www.w3.org/2000/svg"
	 viewBox="0 0 100 100">
	<path d="M50,89.9c-21.6,0-39.1-17.5-39.1-39.1S28.4,11.8,50,11.8c21.6,0,39.1,17.5,39.1,39.1S71.6,89.9,50,89.9z M16.5,50.9
		c0,18.4,15,33.5,33.5,33.5s33.5-15,33.5-33.5S68.4,17.4,50,17.4S16.5,32.4,16.5,50.9z M50,81.6c-17,0-30.7-13.7-30.7-30.7
		S33,20.2,50,20.2c17,0,30.7,13.7,30.7,30.7S67,81.6,50,81.6z M67.5,38.4c-6.2,1.5-11.9,2.7-17.5,2.7s-11.2-1.2-17.5-2.7
		c-1.5-0.3-3,0.6-3.4,2c-0.3,1.5,0.6,3,2,3.4c4.6,1.1,8.9,2,13.2,2.5c-0.2,14.7-1.8,18.8-3.6,23.5l-0.4,0.9
		c-0.6,1.4,0.2,3.1,1.6,3.6c0.3,0.1,0.7,0.2,1,0.2c1.1,0,2.2-0.7,2.6-1.8l0.3-0.9c1.2-3.1,2.4-6.1,3.1-11.3h1.8
		c0.7,5.2,1.9,8.2,3.1,11.3l0.3,0.9c0.4,1.1,1.5,1.8,2.6,1.8c0.3,0,0.7,0,1-0.2c1.4-0.6,2.2-2.2,1.6-3.6l-0.4-0.9
		c-1.8-4.7-3.4-8.8-3.6-23.5c4.3-0.5,8.6-1.4,13.2-2.5c1.5-0.3,2.4-1.8,2-3.4C70.5,39,69,38.1,67.5,38.4z M50,28.5
		c-3.1,0-5.6,2.5-5.6,5.6s2.5,5.6,5.6,5.6c3.1,0,5.6-2.5,5.6-5.6S53.1,28.5,50,28.5z"/>
</svg>
